<svg xmlns="http://www.w3.org/2000/svg" xmlns:xlink="http://www.w3.org/1999/xlink" viewBox="0 0 24 30" version="1.1" x="0px" y="0px"><title>Atom / Icon / eye</title><desc>Created with Sketch.</desc><g stroke="none" stroke-width="1" fill="none" fill-rule="evenodd"><rect fill-rule="nonzero" x="0" y="0" width="24" height="24"/><path d="M7.06735132,17.6397555 L2.35355339,22.3535534 L1.64644661,21.6464466 L6.17228175,17.1206115 C5.56116513,16.7386875 4.95754073,16.3052223 4.36477545,15.8264801 C2.59600576,14.3979473 1,12.5712738 1,12 C1,11.4287262 2.59600576,9.60205274 4.36477545,8.17351986 C6.8041638,6.20336713 9.42745609,5 12,5 C13.6439034,5 15.3085297,5.4913887 16.9326487,6.36024454 L21.6464466,1.64644661 L22.3535534,2.35355339 L17.8277183,6.87938853 C18.4388349,7.26131247 19.0424593,7.69477767 19.6352245,8.17351986 C21.4039942,9.60205274 23,11.4287262 23,12 C23,12.5712738 21.4039942,14.3979473 19.6352245,15.8264801 C17.1958362,17.7966329 14.5725439,19 12,19 C10.3560966,19 8.69147028,18.5086113 7.06735132,17.6397555 Z M7.80968437,16.8974224 C9.2112133,17.605411 10.6266131,18 12,18 C14.3053635,18 16.729106,16.8881711 19.0069111,15.0485199 C19.8631039,14.3570225 20.6458538,13.5999166 21.2594988,12.8975827 C21.5120855,12.6084901 21.7210733,12.3448236 21.8644104,12.1380223 C21.9433747,12.0240956 22,11.917126 22,12 C22,12.082874 21.9433747,11.9759044 21.8644104,11.8619777 C21.7210733,11.6551764 21.5120855,11.3915099 21.2594988,11.1024173 C20.6458538,10.4000834 19.8631039,9.64297754 19.0069111,8.95148014 C18.3805387,8.44559547 17.7431308,7.99474815 17.1001834,7.60692338 L15.1599287,9.54717807 C15.6864592,10.2245199 16,11.0756443 16,12 C16,14.209139 14.209139,16 12,16 C11.0756443,16 10.2245199,15.6864592 9.54717807,15.1599287 L7.80968437,16.8974224 Z M6.8998166,16.3930766 L8.84007129,14.4528219 C8.3135408,13.7754801 8,12.9243557 8,12 C8,9.790861 9.790861,8 12,8 C12.9243557,8 13.7754801,8.3135408 14.4528219,8.84007129 L16.1903156,7.10257759 C14.7887867,6.39458898 13.3733869,6 12,6 C9.69463651,6 7.27089399,7.11182886 4.99308892,8.95148014 C4.13689606,9.64297754 3.35414618,10.4000834 2.74050119,11.1024173 C2.48791447,11.3915099 2.27892669,11.6551764 2.1355896,11.8619777 C2.05662527,11.9759044 2,12.082874 2,12 C2,11.917126 2.05662527,12.0240956 2.1355896,12.1380223 C2.27892669,12.3448236 2.48791447,12.6084901 2.74050119,12.8975827 C3.35414618,13.5999166 4.13689606,14.3570225 4.99308892,15.0485199 C5.61946125,15.5544045 6.25686925,16.0052519 6.8998166,16.3930766 Z M10.2617328,14.445374 C10.7521423,14.7946045 11.3520848,15 12,15 C13.6568542,15 15,13.6568542 15,12 C15,11.3520848 14.7946045,10.7521423 14.445374,10.2617328 L10.2617328,14.445374 Z M9.55462604,13.7382672 L13.7382672,9.55462604 C13.2478577,9.20539548 12.6479152,9 12,9 C10.3431458,9 9,10.3431458 9,12 C9,12.6479152 9.20539548,13.2478577 9.55462604,13.7382672 Z" fill="#000000" fill-rule="nonzero" stroke="#ffffff"/></g><text x="0" y="39" fill="#000000" font-size="5px" font-weight="bold" font-family="'Helvetica Neue', Helvetica, Arial-Unicode, Arial, Sans-serif">Created by Guilherme Lima</text><text x="0" y="44" fill="#000000" font-size="5px" font-weight="bold" font-family="'Helvetica Neue', Helvetica, Arial-Unicode, Arial, Sans-serif">from the Noun Project</text></svg>