<svg xmlns="http://www.w3.org/2000/svg" xmlns:xlink="http://www.w3.org/1999/xlink" viewBox="0 0 24 30" version="1.1" x="0px" y="0px"><title>Atom / Icon / eye-open</title><desc>Created with Sketch.</desc><g fill="none" fill-rule="evenodd"><rect fill-rule="nonzero" x="0" y="0" width="24" height="24"/><path d="M12,19 C9.42745609,19 6.8041638,17.7966329 4.36477545,15.8264801 C2.59600576,14.3979473 1,12.5712738 1,12 C1,11.4287262 2.59600576,9.60205274 4.36477545,8.17351986 C6.8041638,6.20336713 9.42745609,5 12,5 C14.5725439,5 17.1958362,6.20336713 19.6352245,8.17351986 C21.4039942,9.60205274 23,11.4287262 23,12 C23,12.5712738 21.4039942,14.3979473 19.6352245,15.8264801 C17.1958362,17.7966329 14.5725439,19 12,19 Z M12,18 C14.3053635,18 16.729106,16.8881711 19.0069111,15.0485199 C19.8631039,14.3570225 20.6458538,13.5999166 21.2594988,12.8975827 C21.5120855,12.6084901 21.7210733,12.3448236 21.8644104,12.1380223 C21.9433747,12.0240956 22,11.917126 22,12 C22,12.082874 21.9433747,11.9759044 21.8644104,11.8619777 C21.7210733,11.6551764 21.5120855,11.3915099 21.2594988,11.1024173 C20.6458538,10.4000834 19.8631039,9.64297754 19.0069111,8.95148014 C16.729106,7.11182886 14.3053635,6 12,6 C9.69463651,6 7.27089399,7.11182886 4.99308892,8.95148014 C4.13689606,9.64297754 3.35414618,10.4000834 2.74050119,11.1024173 C2.48791447,11.3915099 2.27892669,11.6551764 2.1355896,11.8619777 C2.05662527,11.9759044 2,12.082874 2,12 C2,11.917126 2.05662527,12.0240956 2.1355896,12.1380223 C2.27892669,12.3448236 2.48791447,12.6084901 2.74050119,12.8975827 C3.35414618,13.5999166 4.13689606,14.3570225 4.99308892,15.0485199 C7.27089399,16.8881711 9.69463651,18 12,18 Z M12,16 C9.790861,16 8,14.209139 8,12 C8,9.790861 9.790861,8 12,8 C14.209139,8 16,9.790861 16,12 C16,14.209139 14.209139,16 12,16 Z M12,15 C13.6568542,15 15,13.6568542 15,12 C15,10.3431458 13.6568542,9 12,9 C10.3431458,9 9,10.3431458 9,12 C9,13.6568542 10.3431458,15 12,15 Z" fill="#000000" fill-rule="nonzero" stroke="#ffffff"/></g></svg>